<?xml version="1.0" encoding="UTF-8"?><svg id="Layer_2" xmlns="http://www.w3.org/2000/svg" viewBox="0 0 77.72 19.8"><defs><style>.cls-1{fill:#fb4867;}.cls-2{fill:#e9e9eb;}.cls-3{fill:#1d1d1b;}</style></defs><g id="Layer_1-2"><g><path class="cls-3" d="M27.31,4.25c0,1.41-.4,2.49-1.2,3.24s-1.96,1.12-3.48,1.12h-2.43V.05h2.69c1.4,0,2.48,.37,3.26,1.11s1.16,1.77,1.16,3.09Zm-1.89,.05c0-1.84-.81-2.76-2.44-2.76h-.97V7.12h.78c1.75,0,2.62-.94,2.62-2.82Z"/><path class="cls-3" d="M34.33,8.62l-.62-2.04h-3.12l-.62,2.04h-1.96L31.03,.02h2.22l3.04,8.6h-1.96Zm-1.05-3.56c-.57-1.85-.9-2.89-.97-3.13s-.12-.43-.16-.57c-.13,.5-.5,1.74-1.11,3.71h2.23Z"/><path class="cls-3" d="M44.96,8.62h-2.31l-3.73-6.48h-.05c.07,1.14,.11,1.96,.11,2.45v4.03h-1.62V.05h2.29l3.72,6.42h.04c-.06-1.11-.09-1.9-.09-2.36V.05h1.63V8.62Z"/><path class="cls-3" d="M47.12,8.62V.05h1.82V8.62h-1.82Z"/><path class="cls-3" d="M56.02,8.62h-4.93V.05h4.93V1.54h-3.12v1.88h2.9v1.49h-2.9v2.21h3.12v1.5Z"/><path class="cls-3" d="M57.81,8.62V.05h1.82V7.12h3.47v1.5h-5.29Z"/></g><rect class="cls-1" width="17.76" height="19.63" rx="2.09" ry="2.09"/><g><path class="cls-2" d="M6.29,12.5L1.25,10.27v-.73l5.04-2.52v1.22l-3.47,1.61,3.47,1.43v1.21Z"/><path class="cls-2" d="M10.98,6.1l-2.77,7.42h-1.41l2.77-7.42h1.41Z"/><path class="cls-2" d="M11.48,11.28l3.47-1.43-3.47-1.61v-1.22l5.04,2.52v.73l-5.04,2.22v-1.21Z"/></g><g><path class="cls-3" d="M27.8,19.69h-2.31l-3.73-6.48h-.05c.07,1.14,.11,1.96,.11,2.45v4.03h-1.62V11.12h2.29l3.72,6.42h.04c-.06-1.11-.09-1.9-.09-2.36v-4.05h1.63v8.57Z"/><path class="cls-3" d="M32.62,14.65l1.79-3.53h1.96l-2.84,5.23v3.33h-1.8v-3.28l-2.84-5.29h1.97l1.78,3.53Z"/><path class="cls-3" d="M40.7,14.88h3.4v4.44c-.55,.18-1.07,.31-1.56,.38s-.98,.11-1.49,.11c-1.29,0-2.28-.38-2.96-1.14s-1.02-1.85-1.02-3.27,.4-2.46,1.19-3.23,1.89-1.16,3.29-1.16c.88,0,1.73,.18,2.54,.53l-.6,1.45c-.62-.31-1.28-.47-1.95-.47-.79,0-1.41,.26-1.89,.79s-.71,1.24-.71,2.13,.19,1.64,.57,2.13,.93,.74,1.66,.74c.38,0,.76-.04,1.15-.12v-1.79h-1.62v-1.51Z"/><path class="cls-3" d="M51.38,19.69l-.62-2.04h-3.12l-.62,2.04h-1.96l3.02-8.6h2.22l3.04,8.6h-1.96Zm-1.05-3.56c-.57-1.85-.9-2.89-.97-3.13s-.12-.43-.16-.57c-.13,.5-.5,1.74-1.11,3.71h2.23Z"/><path class="cls-3" d="M59.66,19.69l-.62-2.04h-3.12l-.62,2.04h-1.96l3.02-8.6h2.22l3.04,8.6h-1.96Zm-1.05-3.56c-.57-1.85-.9-2.89-.97-3.13s-.12-.43-.16-.57c-.13,.5-.5,1.74-1.11,3.71h2.23Z"/><path class="cls-3" d="M64.51,16.4v3.29h-1.82V11.12h2.5c1.16,0,2.03,.21,2.58,.64s.84,1.07,.84,1.93c0,.5-.14,.95-.42,1.34s-.67,.7-1.18,.92c1.29,1.93,2.13,3.17,2.52,3.73h-2.02l-2.04-3.29h-.97Zm0-1.48h.59c.57,0,1-.1,1.27-.29s.41-.49,.41-.9-.14-.7-.42-.87-.71-.26-1.3-.26h-.55v2.31Z"/><path class="cls-3" d="M77.72,15.32c0,1.41-.4,2.49-1.2,3.24s-1.96,1.12-3.48,1.12h-2.43V11.12h2.69c1.4,0,2.48,.37,3.26,1.11s1.16,1.77,1.16,3.09Zm-1.89,.05c0-1.84-.81-2.76-2.44-2.76h-.97v5.58h.78c1.75,0,2.62-.94,2.62-2.82Z"/></g></g></svg>